# xmcd
#
# Track frame offsets:
#	150
#	16735
#	32806
#	46998
#	59991
#	79636
#	88115
#	98889
#	112006
#	123616
#	144031
#	156589
#	165478
#	179535
#	193712
#
# Disc length: 2809 seconds
#
# Revision: 9
# Processed by: cddbd v1.5.2PL0 Copyright (c) Steve Scherf et al.
# Submitted via: EasyCDDAExtractor 10.2.0.1
#
DISCID=cd0af70f
DTITLE=Van Morrison - The Skiffle Sessions - Live In Belfast (With Lonnie Done
DTITLE=gan, Chris Barber)
DYEAR=1985
DGENRE=Blues
TTITLE0=It Takes A Worried Man
TTITLE1=Lost John
TTITLE2=Goin' Home
TTITLE3=Good Mornin' Blues
TTITLE4=Outskirts Of Town
TTITLE5=Don't You Rock Me Daddy-O
TTITLE6=Alabamy Bound
TTITLE7=Midnight Special
TTITLE8=Dead Or Alive
TTITLE9=Frankie And Johnny
TTITLE10=Goodnight Irene
TTITLE11=Railroad Bill
TTITLE12=Mule Skinner Blues
TTITLE13=The Ballad Of Jesse James
TTITLE14=I Wanna Go Home
EXTD=YEAR: 1999
EXTT0=
EXTT1=
EXTT2=
EXTT3=
EXTT4=
EXTT5=
EXTT6=
EXTT7=
EXTT8=
EXTT9=
EXTT10=
EXTT11=
EXTT12=
EXTT13=
EXTT14=
PLAYORDER=
